<?xml version="1.0" encoding="utf-8" standalone="no"?>
<!DOCTYPE svg PUBLIC "-//W3C//DTD SVG 1.1//EN"
  "http://www.w3.org/Graphics/SVG/1.1/DTD/svg11.dtd">
<svg xmlns:xlink="http://www.w3.org/1999/xlink" width="432pt" height="360pt" viewBox="0 0 432 360" xmlns="http://www.w3.org/2000/svg" version="1.1">
 <metadata>
  <rdf:RDF xmlns:dc="http://purl.org/dc/elements/1.1/" xmlns:cc="http://creativecommons.org/ns#" xmlns:rdf="http://www.w3.org/1999/02/22-rdf-syntax-ns#">
   <cc:Work>
    <dc:type rdf:resource="http://purl.org/dc/dcmitype/StillImage"/>
    <dc:date>2026-02-02T00:05:33.785323</dc:date>
    <dc:format>image/svg+xml</dc:format>
    <dc:creator>
     <cc:Agent>
      <dc:title>Matplotlib v3.10.8, https://matplotlib.org/</dc:title>
     </cc:Agent>
    </dc:creator>
   </cc:Work>
  </rdf:RDF>
 </metadata>
 <defs>
  <style type="text/css">*{stroke-linejoin: round; stroke-linecap: butt}</style>
 </defs>
 <g id="figure_1">
  <g id="patch_1">
   <path d="M 0 360 
L 432 360 
L 432 0 
L 0 0 
z
" style="fill: #ffffff"/>
  </g>
  <g id="axes_1">
   <g id="patch_2">
    <path d="M 47.72 318.04 
L 421.2 318.04 
L 421.2 26.88 
L 47.72 26.88 
z
" style="fill: #ffffff"/>
   </g>
   <g id="matplotlib.axis_1">
    <g id="xtick_1">
     <g id="line2d_1">
      <path d="M 47.72 318.04 
L 47.72 26.88 
" clip-path="url(#p482c9a0514)" style="fill: none; stroke: #b0b0b0; stroke-width: 0.8; stroke-linecap: square"/>
     </g>
     <g id="line2d_2">
      <defs>
       <path id="mae2a4f0bf4" d="M 0 0 
L 0 3.5 
" style="stroke: #000000; stroke-width: 0.8"/>
      </defs>
      <g>
       <use xlink:href="#mae2a4f0bf4" x="47.72" y="318.04" style="stroke: #000000; stroke-width: 0.8"/>
      </g>
     </g>
     <g id="text_1">
      <!-- 0 -->
      <g transform="translate(44.53875 332.638438) scale(0.1 -0.1)">
       <defs>
        <path id="DejaVuSans-30" d="M 2034 4250 
Q 1547 4250 1301 3770 
Q 1056 3291 1056 2328 
Q 1056 1369 1301 889 
Q 1547 409 2034 409 
Q 2525 409 2770 889 
Q 3016 1369 3016 2328 
Q 3016 3291 2770 3770 
Q 2525 4250 2034 4250 
z
M 2034 4750 
Q 2819 4750 3233 4129 
Q 3647 3509 3647 2328 
Q 3647 1150 3233 529 
Q 2819 -91 2034 -91 
Q 1250 -91 836 529 
Q 422 1150 422 2328 
Q 422 3509 836 4129 
Q 1250 4750 2034 4750 
z
" transform="scale(0.015625)"/>
       </defs>
       <use xlink:href="#DejaVuSans-30"/>
      </g>
     </g>
    </g>
    <g id="xtick_2">
     <g id="line2d_3">
      <path d="M 118.994809 318.04 
L 118.994809 26.88 
" clip-path="url(#p482c9a0514)" style="fill: none; stroke: #b0b0b0; stroke-width: 0.8; stroke-linecap: square"/>
     </g>
     <g id="line2d_4">
      <g>
       <use xlink:href="#mae2a4f0bf4" x="118.994809" y="318.04" style="stroke: #000000; stroke-width: 0.8"/>
      </g>
     </g>
     <g id="text_2">
      <!-- 100 -->
      <g transform="translate(109.451059 332.638438) scale(0.1 -0.1)">
       <defs>
        <path id="DejaVuSans-31" d="M 794 531 
L 1825 531 
L 1825 4091 
L 703 3866 
L 703 4441 
L 1819 4666 
L 2450 4666 
L 2450 531 
L 3481 531 
L 3481 0 
L 794 0 
L 794 531 
z
" transform="scale(0.015625)"/>
       </defs>
       <use xlink:href="#DejaVuSans-31"/>
       <use xlink:href="#DejaVuSans-30" transform="translate(63.623047 0)"/>
       <use xlink:href="#DejaVuSans-30" transform="translate(127.246094 0)"/>
      </g>
     </g>
    </g>
    <g id="xtick_3">
     <g id="line2d_5">
      <path d="M 190.269618 318.04 
L 190.269618 26.88 
" clip-path="url(#p482c9a0514)" style="fill: none; stroke: #b0b0b0; stroke-width: 0.8; stroke-linecap: square"/>
     </g>
     <g id="line2d_6">
      <g>
       <use xlink:href="#mae2a4f0bf4" x="190.269618" y="318.04" style="stroke: #000000; stroke-width: 0.8"/>
      </g>
     </g>
     <g id="text_3">
      <!-- 200 -->
      <g transform="translate(180.725868 332.638438) scale(0.1 -0.1)">
       <defs>
        <path id="DejaVuSans-32" d="M 1228 531 
L 3431 531 
L 3431 0 
L 469 0 
L 469 531 
Q 828 903 1448 1529 
Q 2069 2156 2228 2338 
Q 2531 2678 2651 2914 
Q 2772 3150 2772 3378 
Q 2772 3750 2511 3984 
Q 2250 4219 1831 4219 
Q 1534 4219 1204 4116 
Q 875 4013 500 3803 
L 500 4441 
Q 881 4594 1212 4672 
Q 1544 4750 1819 4750 
Q 2544 4750 2975 4387 
Q 3406 4025 3406 3419 
Q 3406 3131 3298 2873 
Q 3191 2616 2906 2266 
Q 2828 2175 2409 1742 
Q 1991 1309 1228 531 
z
" transform="scale(0.015625)"/>
       </defs>
       <use xlink:href="#DejaVuSans-32"/>
       <use xlink:href="#DejaVuSans-30" transform="translate(63.623047 0)"/>
       <use xlink:href="#DejaVuSans-30" transform="translate(127.246094 0)"/>
      </g>
     </g>
    </g>
    <g id="xtick_4">
     <g id="line2d_7">
      <path d="M 261.544427 318.04 
L 261.544427 26.88 
" clip-path="url(#p482c9a0514)" style="fill: none; stroke: #b0b0b0; stroke-width: 0.8; stroke-linecap: square"/>
     </g>
     <g id="line2d_8">
      <g>
       <use xlink:href="#mae2a4f0bf4" x="261.544427" y="318.04" style="stroke: #000000; stroke-width: 0.8"/>
      </g>
     </g>
     <g id="text_4">
      <!-- 300 -->
      <g transform="translate(252.000677 332.638438) scale(0.1 -0.1)">
       <defs>
        <path id="DejaVuSans-33" d="M 2597 2516 
Q 3050 2419 3304 2112 
Q 3559 1806 3559 1356 
Q 3559 666 3084 287 
Q 2609 -91 1734 -91 
Q 1441 -91 1130 -33 
Q 819 25 488 141 
L 488 750 
Q 750 597 1062 519 
Q 1375 441 1716 441 
Q 2309 441 2620 675 
Q 2931 909 2931 1356 
Q 2931 1769 2642 2001 
Q 2353 2234 1838 2234 
L 1294 2234 
L 1294 2753 
L 1863 2753 
Q 2328 2753 2575 2939 
Q 2822 3125 2822 3475 
Q 2822 3834 2567 4026 
Q 2313 4219 1838 4219 
Q 1578 4219 1281 4162 
Q 984 4106 628 3988 
L 628 4550 
Q 988 4650 1302 4700 
Q 1616 4750 1894 4750 
Q 2613 4750 3031 4423 
Q 3450 4097 3450 3541 
Q 3450 3153 3228 2886 
Q 3006 2619 2597 2516 
z
" transform="scale(0.015625)"/>
       </defs>
       <use xlink:href="#DejaVuSans-33"/>
       <use xlink:href="#DejaVuSans-30" transform="translate(63.623047 0)"/>
       <use xlink:href="#DejaVuSans-30" transform="translate(127.246094 0)"/>
      </g>
     </g>
    </g>
    <g id="xtick_5">
     <g id="line2d_9">
      <path d="M 332.819237 318.04 
L 332.819237 26.88 
" clip-path="url(#p482c9a0514)" style="fill: none; stroke: #b0b0b0; stroke-width: 0.8; stroke-linecap: square"/>
     </g>
     <g id="line2d_10">
      <g>
       <use xlink:href="#mae2a4f0bf4" x="332.819237" y="318.04" style="stroke: #000000; stroke-width: 0.8"/>
      </g>
     </g>
     <g id="text_5">
      <!-- 400 -->
      <g transform="translate(323.275487 332.638438) scale(0.1 -0.1)">
       <defs>
        <path id="DejaVuSans-34" d="M 2419 4116 
L 825 1625 
L 2419 1625 
L 2419 4116 
z
M 2253 4666 
L 3047 4666 
L 3047 1625 
L 3713 1625 
L 3713 1100 
L 3047 1100 
L 3047 0 
L 2419 0 
L 2419 1100 
L 313 1100 
L 313 1709 
L 2253 4666 
z
" transform="scale(0.015625)"/>
       </defs>
       <use xlink:href="#DejaVuSans-34"/>
       <use xlink:href="#DejaVuSans-30" transform="translate(63.623047 0)"/>
       <use xlink:href="#DejaVuSans-30" transform="translate(127.246094 0)"/>
      </g>
     </g>
    </g>
    <g id="xtick_6">
     <g id="line2d_11">
      <path d="M 404.094046 318.04 
L 404.094046 26.88 
" clip-path="url(#p482c9a0514)" style="fill: none; stroke: #b0b0b0; stroke-width: 0.8; stroke-linecap: square"/>
     </g>
     <g id="line2d_12">
      <g>
       <use xlink:href="#mae2a4f0bf4" x="404.094046" y="318.04" style="stroke: #000000; stroke-width: 0.8"/>
      </g>
     </g>
     <g id="text_6">
      <!-- 500 -->
      <g transform="translate(394.550296 332.638438) scale(0.1 -0.1)">
       <defs>
        <path id="DejaVuSans-35" d="M 691 4666 
L 3169 4666 
L 3169 4134 
L 1269 4134 
L 1269 2991 
Q 1406 3038 1543 3061 
Q 1681 3084 1819 3084 
Q 2600 3084 3056 2656 
Q 3513 2228 3513 1497 
Q 3513 744 3044 326 
Q 2575 -91 1722 -91 
Q 1428 -91 1123 -41 
Q 819 9 494 109 
L 494 744 
Q 775 591 1075 516 
Q 1375 441 1709 441 
Q 2250 441 2565 725 
Q 2881 1009 2881 1497 
Q 2881 1984 2565 2268 
Q 2250 2553 1709 2553 
Q 1456 2553 1204 2497 
Q 953 2441 691 2322 
L 691 4666 
z
" transform="scale(0.015625)"/>
       </defs>
       <use xlink:href="#DejaVuSans-35"/>
       <use xlink:href="#DejaVuSans-30" transform="translate(63.623047 0)"/>
       <use xlink:href="#DejaVuSans-30" transform="translate(127.246094 0)"/>
      </g>
     </g>
    </g>
    <g id="text_7">
     <!-- Steps -->
     <g transform="translate(220.470156 346.316563) scale(0.1 -0.1)">
      <defs>
       <path id="DejaVuSans-53" d="M 3425 4513 
L 3425 3897 
Q 3066 4069 2747 4153 
Q 2428 4238 2131 4238 
Q 1616 4238 1336 4038 
Q 1056 3838 1056 3469 
Q 1056 3159 1242 3001 
Q 1428 2844 1947 2747 
L 2328 2669 
Q 3034 2534 3370 2195 
Q 3706 1856 3706 1288 
Q 3706 609 3251 259 
Q 2797 -91 1919 -91 
Q 1588 -91 1214 -16 
Q 841 59 441 206 
L 441 856 
Q 825 641 1194 531 
Q 1563 422 1919 422 
Q 2459 422 2753 634 
Q 3047 847 3047 1241 
Q 3047 1584 2836 1778 
Q 2625 1972 2144 2069 
L 1759 2144 
Q 1053 2284 737 2584 
Q 422 2884 422 3419 
Q 422 4038 858 4394 
Q 1294 4750 2059 4750 
Q 2388 4750 2728 4690 
Q 3069 4631 3425 4513 
z
" transform="scale(0.015625)"/>
       <path id="DejaVuSans-74" d="M 1172 4494 
L 1172 3500 
L 2356 3500 
L 2356 3053 
L 1172 3053 
L 1172 1153 
Q 1172 725 1289 603 
Q 1406 481 1766 481 
L 2356 481 
L 2356 0 
L 1766 0 
Q 1100 0 847 248 
Q 594 497 594 1153 
L 594 3053 
L 172 3053 
L 172 3500 
L 594 3500 
L 594 4494 
L 1172 4494 
z
" transform="scale(0.015625)"/>
       <path id="DejaVuSans-65" d="M 3597 1894 
L 3597 1613 
L 953 1613 
Q 991 1019 1311 708 
Q 1631 397 2203 397 
Q 2534 397 2845 478 
Q 3156 559 3463 722 
L 3463 178 
Q 3153 47 2828 -22 
Q 2503 -91 2169 -91 
Q 1331 -91 842 396 
Q 353 884 353 1716 
Q 353 2575 817 3079 
Q 1281 3584 2069 3584 
Q 2775 3584 3186 3129 
Q 3597 2675 3597 1894 
z
M 3022 2063 
Q 3016 2534 2758 2815 
Q 2500 3097 2075 3097 
Q 1594 3097 1305 2825 
Q 1016 2553 972 2059 
L 3022 2063 
z
" transform="scale(0.015625)"/>
       <path id="DejaVuSans-70" d="M 1159 525 
L 1159 -1331 
L 581 -1331 
L 581 3500 
L 1159 3500 
L 1159 2969 
Q 1341 3281 1617 3432 
Q 1894 3584 2278 3584 
Q 2916 3584 3314 3078 
Q 3713 2572 3713 1747 
Q 3713 922 3314 415 
Q 2916 -91 2278 -91 
Q 1894 -91 1617 61 
Q 1341 213 1159 525 
z
M 3116 1747 
Q 3116 2381 2855 2742 
Q 2594 3103 2138 3103 
Q 1681 3103 1420 2742 
Q 1159 2381 1159 1747 
Q 1159 1113 1420 752 
Q 1681 391 2138 391 
Q 2594 391 2855 752 
Q 3116 1113 3116 1747 
z
" transform="scale(0.015625)"/>
       <path id="DejaVuSans-73" d="M 2834 3397 
L 2834 2853 
Q 2591 2978 2328 3040 
Q 2066 3103 1784 3103 
Q 1356 3103 1142 2972 
Q 928 2841 928 2578 
Q 928 2378 1081 2264 
Q 1234 2150 1697 2047 
L 1894 2003 
Q 2506 1872 2764 1633 
Q 3022 1394 3022 966 
Q 3022 478 2636 193 
Q 2250 -91 1575 -91 
Q 1294 -91 989 -36 
Q 684 19 347 128 
L 347 722 
Q 666 556 975 473 
Q 1284 391 1588 391 
Q 1994 391 2212 530 
Q 2431 669 2431 922 
Q 2431 1156 2273 1281 
Q 2116 1406 1581 1522 
L 1381 1569 
Q 847 1681 609 1914 
Q 372 2147 372 2553 
Q 372 3047 722 3315 
Q 1072 3584 1716 3584 
Q 2034 3584 2315 3537 
Q 2597 3491 2834 3397 
z
" transform="scale(0.015625)"/>
      </defs>
      <use xlink:href="#DejaVuSans-53"/>
      <use xlink:href="#DejaVuSans-74" transform="translate(63.476562 0)"/>
      <use xlink:href="#DejaVuSans-65" transform="translate(102.685547 0)"/>
      <use xlink:href="#DejaVuSans-70" transform="translate(164.208984 0)"/>
      <use xlink:href="#DejaVuSans-73" transform="translate(227.685547 0)"/>
     </g>
    </g>
   </g>
   <g id="matplotlib.axis_2">
    <g id="ytick_1">
     <g id="line2d_13">
      <path d="M 47.72 303.133521 
L 421.2 303.133521 
" clip-path="url(#p482c9a0514)" style="fill: none; stroke: #b0b0b0; stroke-width: 0.8; stroke-linecap: square"/>
     </g>
     <g id="line2d_14">
      <defs>
       <path id="m97750587d8" d="M 0 0 
L -3.5 0 
" style="stroke: #000000; stroke-width: 0.8"/>
      </defs>
      <g>
       <use xlink:href="#m97750587d8" x="47.72" y="303.133521" style="stroke: #000000; stroke-width: 0.8"/>
      </g>
     </g>
     <g id="text_8">
      <!-- 0.3 -->
      <g transform="translate(24.816875 306.93274) scale(0.1 -0.1)">
       <defs>
        <path id="DejaVuSans-2e" d="M 684 794 
L 1344 794 
L 1344 0 
L 684 0 
L 684 794 
z
" transform="scale(0.015625)"/>
       </defs>
       <use xlink:href="#DejaVuSans-30"/>
       <use xlink:href="#DejaVuSans-2e" transform="translate(63.623047 0)"/>
       <use xlink:href="#DejaVuSans-33" transform="translate(95.410156 0)"/>
      </g>
     </g>
    </g>
    <g id="ytick_2">
     <g id="line2d_15">
      <path d="M 47.72 238.828391 
L 421.2 238.828391 
" clip-path="url(#p482c9a0514)" style="fill: none; stroke: #b0b0b0; stroke-width: 0.8; stroke-linecap: square"/>
     </g>
     <g id="line2d_16">
      <g>
       <use xlink:href="#m97750587d8" x="47.72" y="238.828391" style="stroke: #000000; stroke-width: 0.8"/>
      </g>
     </g>
     <g id="text_9">
      <!-- 0.4 -->
      <g transform="translate(24.816875 242.62761) scale(0.1 -0.1)">
       <use xlink:href="#DejaVuSans-30"/>
       <use xlink:href="#DejaVuSans-2e" transform="translate(63.623047 0)"/>
       <use xlink:href="#DejaVuSans-34" transform="translate(95.410156 0)"/>
      </g>
     </g>
    </g>
    <g id="ytick_3">
     <g id="line2d_17">
      <path d="M 47.72 174.523262 
L 421.2 174.523262 
" clip-path="url(#p482c9a0514)" style="fill: none; stroke: #b0b0b0; stroke-width: 0.8; stroke-linecap: square"/>
     </g>
     <g id="line2d_18">
      <g>
       <use xlink:href="#m97750587d8" x="47.72" y="174.523262" style="stroke: #000000; stroke-width: 0.8"/>
      </g>
     </g>
     <g id="text_10">
      <!-- 0.5 -->
      <g transform="translate(24.816875 178.32248) scale(0.1 -0.1)">
       <use xlink:href="#DejaVuSans-30"/>
       <use xlink:href="#DejaVuSans-2e" transform="translate(63.623047 0)"/>
       <use xlink:href="#DejaVuSans-35" transform="translate(95.410156 0)"/>
      </g>
     </g>
    </g>
    <g id="ytick_4">
     <g id="line2d_19">
      <path d="M 47.72 110.218132 
L 421.2 110.218132 
" clip-path="url(#p482c9a0514)" style="fill: none; stroke: #b0b0b0; stroke-width: 0.8; stroke-linecap: square"/>
     </g>
     <g id="line2d_20">
      <g>
       <use xlink:href="#m97750587d8" x="47.72" y="110.218132" style="stroke: #000000; stroke-width: 0.8"/>
      </g>
     </g>
     <g id="text_11">
      <!-- 0.6 -->
      <g transform="translate(24.816875 114.017351) scale(0.1 -0.1)">
       <defs>
        <path id="DejaVuSans-36" d="M 2113 2584 
Q 1688 2584 1439 2293 
Q 1191 2003 1191 1497 
Q 1191 994 1439 701 
Q 1688 409 2113 409 
Q 2538 409 2786 701 
Q 3034 994 3034 1497 
Q 3034 2003 2786 2293 
Q 2538 2584 2113 2584 
z
M 3366 4563 
L 3366 3988 
Q 3128 4100 2886 4159 
Q 2644 4219 2406 4219 
Q 1781 4219 1451 3797 
Q 1122 3375 1075 2522 
Q 1259 2794 1537 2939 
Q 1816 3084 2150 3084 
Q 2853 3084 3261 2657 
Q 3669 2231 3669 1497 
Q 3669 778 3244 343 
Q 2819 -91 2113 -91 
Q 1303 -91 875 529 
Q 447 1150 447 2328 
Q 447 3434 972 4092 
Q 1497 4750 2381 4750 
Q 2619 4750 2861 4703 
Q 3103 4656 3366 4563 
z
" transform="scale(0.015625)"/>
       </defs>
       <use xlink:href="#DejaVuSans-30"/>
       <use xlink:href="#DejaVuSans-2e" transform="translate(63.623047 0)"/>
       <use xlink:href="#DejaVuSans-36" transform="translate(95.410156 0)"/>
      </g>
     </g>
    </g>
    <g id="ytick_5">
     <g id="line2d_21">
      <path d="M 47.72 45.913002 
L 421.2 45.913002 
" clip-path="url(#p482c9a0514)" style="fill: none; stroke: #b0b0b0; stroke-width: 0.8; stroke-linecap: square"/>
     </g>
     <g id="line2d_22">
      <g>
       <use xlink:href="#m97750587d8" x="47.72" y="45.913002" style="stroke: #000000; stroke-width: 0.8"/>
      </g>
     </g>
     <g id="text_12">
      <!-- 0.7 -->
      <g transform="translate(24.816875 49.712221) scale(0.1 -0.1)">
       <defs>
        <path id="DejaVuSans-37" d="M 525 4666 
L 3525 4666 
L 3525 4397 
L 1831 0 
L 1172 0 
L 2766 4134 
L 525 4134 
L 525 4666 
z
" transform="scale(0.015625)"/>
       </defs>
       <use xlink:href="#DejaVuSans-30"/>
       <use xlink:href="#DejaVuSans-2e" transform="translate(63.623047 0)"/>
       <use xlink:href="#DejaVuSans-37" transform="translate(95.410156 0)"/>
      </g>
     </g>
    </g>
    <g id="text_13">
     <!-- Validation Accuracy -->
     <g transform="translate(18.737188 221.567813) rotate(-90) scale(0.1 -0.1)">
      <defs>
       <path id="DejaVuSans-56" d="M 1831 0 
L 50 4666 
L 709 4666 
L 2188 738 
L 3669 4666 
L 4325 4666 
L 2547 0 
L 1831 0 
z
" transform="scale(0.015625)"/>
       <path id="DejaVuSans-61" d="M 2194 1759 
Q 1497 1759 1228 1600 
Q 959 1441 959 1056 
Q 959 750 1161 570 
Q 1363 391 1709 391 
Q 2188 391 2477 730 
Q 2766 1069 2766 1631 
L 2766 1759 
L 2194 1759 
z
M 3341 1997 
L 3341 0 
L 2766 0 
L 2766 531 
Q 2569 213 2275 61 
Q 1981 -91 1556 -91 
Q 1019 -91 701 211 
Q 384 513 384 1019 
Q 384 1609 779 1909 
Q 1175 2209 1959 2209 
L 2766 2209 
L 2766 2266 
Q 2766 2663 2505 2880 
Q 2244 3097 1772 3097 
Q 1472 3097 1187 3025 
Q 903 2953 641 2809 
L 641 3341 
Q 956 3463 1253 3523 
Q 1550 3584 1831 3584 
Q 2591 3584 2966 3190 
Q 3341 2797 3341 1997 
z
" transform="scale(0.015625)"/>
       <path id="DejaVuSans-6c" d="M 603 4863 
L 1178 4863 
L 1178 0 
L 603 0 
L 603 4863 
z
" transform="scale(0.015625)"/>
       <path id="DejaVuSans-69" d="M 603 3500 
L 1178 3500 
L 1178 0 
L 603 0 
L 603 3500 
z
M 603 4863 
L 1178 4863 
L 1178 4134 
L 603 4134 
L 603 4863 
z
" transform="scale(0.015625)"/>
       <path id="DejaVuSans-64" d="M 2906 2969 
L 2906 4863 
L 3481 4863 
L 3481 0 
L 2906 0 
L 2906 525 
Q 2725 213 2448 61 
Q 2172 -91 1784 -91 
Q 1150 -91 751 415 
Q 353 922 353 1747 
Q 353 2572 751 3078 
Q 1150 3584 1784 3584 
Q 2172 3584 2448 3432 
Q 2725 3281 2906 2969 
z
M 947 1747 
Q 947 1113 1208 752 
Q 1469 391 1925 391 
Q 2381 391 2643 752 
Q 2906 1113 2906 1747 
Q 2906 2381 2643 2742 
Q 2381 3103 1925 3103 
Q 1469 3103 1208 2742 
Q 947 2381 947 1747 
z
" transform="scale(0.015625)"/>
       <path id="DejaVuSans-6f" d="M 1959 3097 
Q 1497 3097 1228 2736 
Q 959 2375 959 1747 
Q 959 1119 1226 758 
Q 1494 397 1959 397 
Q 2419 397 2687 759 
Q 2956 1122 2956 1747 
Q 2956 2369 2687 2733 
Q 2419 3097 1959 3097 
z
M 1959 3584 
Q 2709 3584 3137 3096 
Q 3566 2609 3566 1747 
Q 3566 888 3137 398 
Q 2709 -91 1959 -91 
Q 1206 -91 779 398 
Q 353 888 353 1747 
Q 353 2609 779 3096 
Q 1206 3584 1959 3584 
z
" transform="scale(0.015625)"/>
       <path id="DejaVuSans-6e" d="M 3513 2113 
L 3513 0 
L 2938 0 
L 2938 2094 
Q 2938 2591 2744 2837 
Q 2550 3084 2163 3084 
Q 1697 3084 1428 2787 
Q 1159 2491 1159 1978 
L 1159 0 
L 581 0 
L 581 3500 
L 1159 3500 
L 1159 2956 
Q 1366 3272 1645 3428 
Q 1925 3584 2291 3584 
Q 2894 3584 3203 3211 
Q 3513 2838 3513 2113 
z
" transform="scale(0.015625)"/>
       <path id="DejaVuSans-20" transform="scale(0.015625)"/>
       <path id="DejaVuSans-41" d="M 2188 4044 
L 1331 1722 
L 3047 1722 
L 2188 4044 
z
M 1831 4666 
L 2547 4666 
L 4325 0 
L 3669 0 
L 3244 1197 
L 1141 1197 
L 716 0 
L 50 0 
L 1831 4666 
z
" transform="scale(0.015625)"/>
       <path id="DejaVuSans-63" d="M 3122 3366 
L 3122 2828 
Q 2878 2963 2633 3030 
Q 2388 3097 2138 3097 
Q 1578 3097 1268 2742 
Q 959 2388 959 1747 
Q 959 1106 1268 751 
Q 1578 397 2138 397 
Q 2388 397 2633 464 
Q 2878 531 3122 666 
L 3122 134 
Q 2881 22 2623 -34 
Q 2366 -91 2075 -91 
Q 1284 -91 818 406 
Q 353 903 353 1747 
Q 353 2603 823 3093 
Q 1294 3584 2113 3584 
Q 2378 3584 2631 3529 
Q 2884 3475 3122 3366 
z
" transform="scale(0.015625)"/>
       <path id="DejaVuSans-75" d="M 544 1381 
L 544 3500 
L 1119 3500 
L 1119 1403 
Q 1119 906 1312 657 
Q 1506 409 1894 409 
Q 2359 409 2629 706 
Q 2900 1003 2900 1516 
L 2900 3500 
L 3475 3500 
L 3475 0 
L 2900 0 
L 2900 538 
Q 2691 219 2414 64 
Q 2138 -91 1772 -91 
Q 1169 -91 856 284 
Q 544 659 544 1381 
z
M 1991 3584 
L 1991 3584 
z
" transform="scale(0.015625)"/>
       <path id="DejaVuSans-72" d="M 2631 2963 
Q 2534 3019 2420 3045 
Q 2306 3072 2169 3072 
Q 1681 3072 1420 2755 
Q 1159 2438 1159 1844 
L 1159 0 
L 581 0 
L 581 3500 
L 1159 3500 
L 1159 2956 
Q 1341 3275 1631 3429 
Q 1922 3584 2338 3584 
Q 2397 3584 2469 3576 
Q 2541 3569 2628 3553 
L 2631 2963 
z
" transform="scale(0.015625)"/>
       <path id="DejaVuSans-79" d="M 2059 -325 
Q 1816 -950 1584 -1140 
Q 1353 -1331 966 -1331 
L 506 -1331 
L 506 -850 
L 844 -850 
Q 1081 -850 1212 -737 
Q 1344 -625 1503 -206 
L 1606 56 
L 191 3500 
L 800 3500 
L 1894 763 
L 2988 3500 
L 3597 3500 
L 2059 -325 
z
" transform="scale(0.015625)"/>
      </defs>
      <use xlink:href="#DejaVuSans-56"/>
      <use xlink:href="#DejaVuSans-61" transform="translate(60.658203 0)"/>
      <use xlink:href="#DejaVuSans-6c" transform="translate(121.9375 0)"/>
      <use xlink:href="#DejaVuSans-69" transform="translate(149.720703 0)"/>
      <use xlink:href="#DejaVuSans-64" transform="translate(177.503906 0)"/>
      <use xlink:href="#DejaVuSans-61" transform="translate(240.980469 0)"/>
      <use xlink:href="#DejaVuSans-74" transform="translate(302.259766 0)"/>
      <use xlink:href="#DejaVuSans-69" transform="translate(341.46875 0)"/>
      <use xlink:href="#DejaVuSans-6f" transform="translate(369.251953 0)"/>
      <use xlink:href="#DejaVuSans-6e" transform="translate(430.433594 0)"/>
      <use xlink:href="#DejaVuSans-20" transform="translate(493.8125 0)"/>
      <use xlink:href="#DejaVuSans-41" transform="translate(525.599609 0)"/>
      <use xlink:href="#DejaVuSans-63" transform="translate(592.257812 0)"/>
      <use xlink:href="#DejaVuSans-63" transform="translate(647.238281 0)"/>
      <use xlink:href="#DejaVuSans-75" transform="translate(702.21875 0)"/>
      <use xlink:href="#DejaVuSans-72" transform="translate(765.597656 0)"/>
      <use xlink:href="#DejaVuSans-61" transform="translate(806.710938 0)"/>
      <use xlink:href="#DejaVuSans-63" transform="translate(867.990234 0)"/>
      <use xlink:href="#DejaVuSans-79" transform="translate(922.970703 0)"/>
     </g>
    </g>
   </g>
   <g id="line2d_23">
    <path d="M 61.974962 304.805455 
L 76.229924 191.628426 
L 90.484885 144.814292 
L 104.739847 104.494975 
L 118.994809 88.675913 
L 133.249771 80.830687 
L 147.504733 71.892274 
L 161.759695 70.734782 
L 176.014656 71.313528 
L 190.269618 64.047049 
L 204.52458 63.339692 
L 218.779542 56.909179 
L 233.034504 54.851415 
L 247.289466 56.394738 
L 261.544427 53.436702 
L 275.799389 52.214905 
L 290.054351 52.53643 
L 304.309313 50.414361 
L 318.564275 50.735887 
L 332.819237 46.813274 
L 347.074198 47.456325 
L 361.32916 48.292292 
L 375.584122 45.01273 
L 389.839084 48.163682 
L 404.094046 47.327715 
" clip-path="url(#p482c9a0514)" style="fill: none; stroke: #1f77b4; stroke-width: 1.5; stroke-linecap: square"/>
    <defs>
     <path id="m894aa4d32a" d="M 0 1.5 
C 0.397805 1.5 0.77937 1.341951 1.06066 1.06066 
C 1.341951 0.77937 1.5 0.397805 1.5 0 
C 1.5 -0.397805 1.341951 -0.77937 1.06066 -1.06066 
C 0.77937 -1.341951 0.397805 -1.5 0 -1.5 
C -0.397805 -1.5 -0.77937 -1.341951 -1.06066 -1.06066 
C -1.341951 -0.77937 -1.5 -0.397805 -1.5 0 
C -1.5 0.397805 -1.341951 0.77937 -1.06066 1.06066 
C -0.77937 1.341951 -0.397805 1.5 0 1.5 
z
" style="stroke: #1f77b4"/>
    </defs>
    <g clip-path="url(#p482c9a0514)">
     <use xlink:href="#m894aa4d32a" x="61.974962" y="304.805455" style="fill: #1f77b4; stroke: #1f77b4"/>
     <use xlink:href="#m894aa4d32a" x="76.229924" y="191.628426" style="fill: #1f77b4; stroke: #1f77b4"/>
     <use xlink:href="#m894aa4d32a" x="90.484885" y="144.814292" style="fill: #1f77b4; stroke: #1f77b4"/>
     <use xlink:href="#m894aa4d32a" x="104.739847" y="104.494975" style="fill: #1f77b4; stroke: #1f77b4"/>
     <use xlink:href="#m894aa4d32a" x="118.994809" y="88.675913" style="fill: #1f77b4; stroke: #1f77b4"/>
     <use xlink:href="#m894aa4d32a" x="133.249771" y="80.830687" style="fill: #1f77b4; stroke: #1f77b4"/>
     <use xlink:href="#m894aa4d32a" x="147.504733" y="71.892274" style="fill: #1f77b4; stroke: #1f77b4"/>
     <use xlink:href="#m894aa4d32a" x="161.759695" y="70.734782" style="fill: #1f77b4; stroke: #1f77b4"/>
     <use xlink:href="#m894aa4d32a" x="176.014656" y="71.313528" style="fill: #1f77b4; stroke: #1f77b4"/>
     <use xlink:href="#m894aa4d32a" x="190.269618" y="64.047049" style="fill: #1f77b4; stroke: #1f77b4"/>
     <use xlink:href="#m894aa4d32a" x="204.52458" y="63.339692" style="fill: #1f77b4; stroke: #1f77b4"/>
     <use xlink:href="#m894aa4d32a" x="218.779542" y="56.909179" style="fill: #1f77b4; stroke: #1f77b4"/>
     <use xlink:href="#m894aa4d32a" x="233.034504" y="54.851415" style="fill: #1f77b4; stroke: #1f77b4"/>
     <use xlink:href="#m894aa4d32a" x="247.289466" y="56.394738" style="fill: #1f77b4; stroke: #1f77b4"/>
     <use xlink:href="#m894aa4d32a" x="261.544427" y="53.436702" style="fill: #1f77b4; stroke: #1f77b4"/>
     <use xlink:href="#m894aa4d32a" x="275.799389" y="52.214905" style="fill: #1f77b4; stroke: #1f77b4"/>
     <use xlink:href="#m894aa4d32a" x="290.054351" y="52.53643" style="fill: #1f77b4; stroke: #1f77b4"/>
     <use xlink:href="#m894aa4d32a" x="304.309313" y="50.414361" style="fill: #1f77b4; stroke: #1f77b4"/>
     <use xlink:href="#m894aa4d32a" x="318.564275" y="50.735887" style="fill: #1f77b4; stroke: #1f77b4"/>
     <use xlink:href="#m894aa4d32a" x="332.819237" y="46.813274" style="fill: #1f77b4; stroke: #1f77b4"/>
     <use xlink:href="#m894aa4d32a" x="347.074198" y="47.456325" style="fill: #1f77b4; stroke: #1f77b4"/>
     <use xlink:href="#m894aa4d32a" x="361.32916" y="48.292292" style="fill: #1f77b4; stroke: #1f77b4"/>
     <use xlink:href="#m894aa4d32a" x="375.584122" y="45.01273" style="fill: #1f77b4; stroke: #1f77b4"/>
     <use xlink:href="#m894aa4d32a" x="389.839084" y="48.163682" style="fill: #1f77b4; stroke: #1f77b4"/>
     <use xlink:href="#m894aa4d32a" x="404.094046" y="47.327715" style="fill: #1f77b4; stroke: #1f77b4"/>
    </g>
   </g>
   <g id="line2d_24">
    <path d="M 61.974962 291.193523 
L 76.229924 175.915154 
L 90.484885 127.145207 
L 104.739847 96.631614 
L 118.994809 81.612189 
L 133.249771 72.0524 
L 147.504733 69.743394 
L 161.759695 64.391652 
L 176.014656 63.161603 
L 190.269618 58.34934 
L 204.52458 52.587595 
L 218.779542 54.91818 
L 233.034504 52.652332 
L 247.289466 50.861225 
L 261.544427 48.034281 
L 275.799389 47.537961 
L 290.054351 47.667436 
L 304.309313 46.005804 
L 318.564275 42.056706 
L 332.819237 45.552604 
L 347.074198 46.09212 
L 361.32916 43.394651 
L 375.584122 46.545282 
L 389.839084 40.114545 
L 404.094046 44.862071 
" clip-path="url(#p482c9a0514)" style="fill: none; stroke: #ff7f0e; stroke-width: 1.5; stroke-linecap: square"/>
    <defs>
     <path id="m5ca71db961" d="M 0 1.5 
C 0.397805 1.5 0.77937 1.341951 1.06066 1.06066 
C 1.341951 0.77937 1.5 0.397805 1.5 0 
C 1.5 -0.397805 1.341951 -0.77937 1.06066 -1.06066 
C 0.77937 -1.341951 0.397805 -1.5 0 -1.5 
C -0.397805 -1.5 -0.77937 -1.341951 -1.06066 -1.06066 
C -1.341951 -0.77937 -1.5 -0.397805 -1.5 0 
C -1.5 0.397805 -1.341951 0.77937 -1.06066 1.06066 
C -0.77937 1.341951 -0.397805 1.5 0 1.5 
z
" style="stroke: #ff7f0e"/>
    </defs>
    <g clip-path="url(#p482c9a0514)">
     <use xlink:href="#m5ca71db961" x="61.974962" y="291.193523" style="fill: #ff7f0e; stroke: #ff7f0e"/>
     <use xlink:href="#m5ca71db961" x="76.229924" y="175.915154" style="fill: #ff7f0e; stroke: #ff7f0e"/>
     <use xlink:href="#m5ca71db961" x="90.484885" y="127.145207" style="fill: #ff7f0e; stroke: #ff7f0e"/>
     <use xlink:href="#m5ca71db961" x="104.739847" y="96.631614" style="fill: #ff7f0e; stroke: #ff7f0e"/>
     <use xlink:href="#m5ca71db961" x="118.994809" y="81.612189" style="fill: #ff7f0e; stroke: #ff7f0e"/>
     <use xlink:href="#m5ca71db961" x="133.249771" y="72.0524" style="fill: #ff7f0e; stroke: #ff7f0e"/>
     <use xlink:href="#m5ca71db961" x="147.504733" y="69.743394" style="fill: #ff7f0e; stroke: #ff7f0e"/>
     <use xlink:href="#m5ca71db961" x="161.759695" y="64.391652" style="fill: #ff7f0e; stroke: #ff7f0e"/>
     <use xlink:href="#m5ca71db961" x="176.014656" y="63.161603" style="fill: #ff7f0e; stroke: #ff7f0e"/>
     <use xlink:href="#m5ca71db961" x="190.269618" y="58.34934" style="fill: #ff7f0e; stroke: #ff7f0e"/>
     <use xlink:href="#m5ca71db961" x="204.52458" y="52.587595" style="fill: #ff7f0e; stroke: #ff7f0e"/>
     <use xlink:href="#m5ca71db961" x="218.779542" y="54.91818" style="fill: #ff7f0e; stroke: #ff7f0e"/>
     <use xlink:href="#m5ca71db961" x="233.034504" y="52.652332" style="fill: #ff7f0e; stroke: #ff7f0e"/>
     <use xlink:href="#m5ca71db961" x="247.289466" y="50.861225" style="fill: #ff7f0e; stroke: #ff7f0e"/>
     <use xlink:href="#m5ca71db961" x="261.544427" y="48.034281" style="fill: #ff7f0e; stroke: #ff7f0e"/>
     <use xlink:href="#m5ca71db961" x="275.799389" y="47.537961" style="fill: #ff7f0e; stroke: #ff7f0e"/>
     <use xlink:href="#m5ca71db961" x="290.054351" y="47.667436" style="fill: #ff7f0e; stroke: #ff7f0e"/>
     <use xlink:href="#m5ca71db961" x="304.309313" y="46.005804" style="fill: #ff7f0e; stroke: #ff7f0e"/>
     <use xlink:href="#m5ca71db961" x="318.564275" y="42.056706" style="fill: #ff7f0e; stroke: #ff7f0e"/>
     <use xlink:href="#m5ca71db961" x="332.819237" y="45.552604" style="fill: #ff7f0e; stroke: #ff7f0e"/>
     <use xlink:href="#m5ca71db961" x="347.074198" y="46.09212" style="fill: #ff7f0e; stroke: #ff7f0e"/>
     <use xlink:href="#m5ca71db961" x="361.32916" y="43.394651" style="fill: #ff7f0e; stroke: #ff7f0e"/>
     <use xlink:href="#m5ca71db961" x="375.584122" y="46.545282" style="fill: #ff7f0e; stroke: #ff7f0e"/>
     <use xlink:href="#m5ca71db961" x="389.839084" y="40.114545" style="fill: #ff7f0e; stroke: #ff7f0e"/>
     <use xlink:href="#m5ca71db961" x="404.094046" y="44.862071" style="fill: #ff7f0e; stroke: #ff7f0e"/>
    </g>
   </g>
   <g id="patch_3">
    <path d="M 47.72 318.04 
L 47.72 26.88 
" style="fill: none; stroke: #000000; stroke-width: 0.8; stroke-linejoin: miter; stroke-linecap: square"/>
   </g>
   <g id="patch_4">
    <path d="M 421.2 318.04 
L 421.2 26.88 
" style="fill: none; stroke: #000000; stroke-width: 0.8; stroke-linejoin: miter; stroke-linecap: square"/>
   </g>
   <g id="patch_5">
    <path d="M 47.72 318.04 
L 421.2 318.04 
" style="fill: none; stroke: #000000; stroke-width: 0.8; stroke-linejoin: miter; stroke-linecap: square"/>
   </g>
   <g id="patch_6">
    <path d="M 47.72 26.88 
L 421.2 26.88 
" style="fill: none; stroke: #000000; stroke-width: 0.8; stroke-linejoin: miter; stroke-linecap: square"/>
   </g>
   <g id="text_14">
    <!-- Accuracy vs Steps -->
    <g transform="translate(179.787812 20.88) scale(0.12 -0.12)">
     <defs>
      <path id="DejaVuSans-76" d="M 191 3500 
L 800 3500 
L 1894 563 
L 2988 3500 
L 3597 3500 
L 2284 0 
L 1503 0 
L 191 3500 
z
" transform="scale(0.015625)"/>
     </defs>
     <use xlink:href="#DejaVuSans-41"/>
     <use xlink:href="#DejaVuSans-63" transform="translate(66.658203 0)"/>
     <use xlink:href="#DejaVuSans-63" transform="translate(121.638672 0)"/>
     <use xlink:href="#DejaVuSans-75" transform="translate(176.619141 0)"/>
     <use xlink:href="#DejaVuSans-72" transform="translate(239.998047 0)"/>
     <use xlink:href="#DejaVuSans-61" transform="translate(281.111328 0)"/>
     <use xlink:href="#DejaVuSans-63" transform="translate(342.390625 0)"/>
     <use xlink:href="#DejaVuSans-79" transform="translate(397.371094 0)"/>
     <use xlink:href="#DejaVuSans-20" transform="translate(456.550781 0)"/>
     <use xlink:href="#DejaVuSans-76" transform="translate(488.337891 0)"/>
     <use xlink:href="#DejaVuSans-73" transform="translate(547.517578 0)"/>
     <use xlink:href="#DejaVuSans-20" transform="translate(599.617188 0)"/>
     <use xlink:href="#DejaVuSans-53" transform="translate(631.404297 0)"/>
     <use xlink:href="#DejaVuSans-74" transform="translate(694.880859 0)"/>
     <use xlink:href="#DejaVuSans-65" transform="translate(734.089844 0)"/>
     <use xlink:href="#DejaVuSans-70" transform="translate(795.613281 0)"/>
     <use xlink:href="#DejaVuSans-73" transform="translate(859.089844 0)"/>
    </g>
   </g>
   <g id="legend_1">
    <g id="patch_7">
     <path d="M 248.19375 313.04 
L 414.2 313.04 
Q 416.2 313.04 416.2 311.04 
L 416.2 282.1275 
Q 416.2 280.1275 414.2 280.1275 
L 248.19375 280.1275 
Q 246.19375 280.1275 246.19375 282.1275 
L 246.19375 311.04 
Q 246.19375 313.04 248.19375 313.04 
z
" style="fill: #ffffff; opacity: 0.8; stroke: #cccccc; stroke-linejoin: miter"/>
    </g>
    <g id="line2d_25">
     <path d="M 250.19375 288.225937 
L 260.19375 288.225937 
L 270.19375 288.225937 
" style="fill: none; stroke: #1f77b4; stroke-width: 1.5; stroke-linecap: square"/>
     <g>
      <use xlink:href="#m894aa4d32a" x="260.19375" y="288.225937" style="fill: #1f77b4; stroke: #1f77b4"/>
     </g>
    </g>
    <g id="text_15">
     <!-- arxiv_1gpu_cache_eval.log -->
     <g transform="translate(278.19375 291.725937) scale(0.1 -0.1)">
      <defs>
       <path id="DejaVuSans-78" d="M 3513 3500 
L 2247 1797 
L 3578 0 
L 2900 0 
L 1881 1375 
L 863 0 
L 184 0 
L 1544 1831 
L 300 3500 
L 978 3500 
L 1906 2253 
L 2834 3500 
L 3513 3500 
z
" transform="scale(0.015625)"/>
       <path id="DejaVuSans-5f" d="M 3263 -1063 
L 3263 -1509 
L -63 -1509 
L -63 -1063 
L 3263 -1063 
z
" transform="scale(0.015625)"/>
       <path id="DejaVuSans-67" d="M 2906 1791 
Q 2906 2416 2648 2759 
Q 2391 3103 1925 3103 
Q 1463 3103 1205 2759 
Q 947 2416 947 1791 
Q 947 1169 1205 825 
Q 1463 481 1925 481 
Q 2391 481 2648 825 
Q 2906 1169 2906 1791 
z
M 3481 434 
Q 3481 -459 3084 -895 
Q 2688 -1331 1869 -1331 
Q 1566 -1331 1297 -1286 
Q 1028 -1241 775 -1147 
L 775 -588 
Q 1028 -725 1275 -790 
Q 1522 -856 1778 -856 
Q 2344 -856 2625 -561 
Q 2906 -266 2906 331 
L 2906 616 
Q 2728 306 2450 153 
Q 2172 0 1784 0 
Q 1141 0 747 490 
Q 353 981 353 1791 
Q 353 2603 747 3093 
Q 1141 3584 1784 3584 
Q 2172 3584 2450 3431 
Q 2728 3278 2906 2969 
L 2906 3500 
L 3481 3500 
L 3481 434 
z
" transform="scale(0.015625)"/>
       <path id="DejaVuSans-68" d="M 3513 2113 
L 3513 0 
L 2938 0 
L 2938 2094 
Q 2938 2591 2744 2837 
Q 2550 3084 2163 3084 
Q 1697 3084 1428 2787 
Q 1159 2491 1159 1978 
L 1159 0 
L 581 0 
L 581 4863 
L 1159 4863 
L 1159 2956 
Q 1366 3272 1645 3428 
Q 1925 3584 2291 3584 
Q 2894 3584 3203 3211 
Q 3513 2838 3513 2113 
z
" transform="scale(0.015625)"/>
      </defs>
      <use xlink:href="#DejaVuSans-61"/>
      <use xlink:href="#DejaVuSans-72" transform="translate(61.279297 0)"/>
      <use xlink:href="#DejaVuSans-78" transform="translate(99.767578 0)"/>
      <use xlink:href="#DejaVuSans-69" transform="translate(158.947266 0)"/>
      <use xlink:href="#DejaVuSans-76" transform="translate(186.730469 0)"/>
      <use xlink:href="#DejaVuSans-5f" transform="translate(245.910156 0)"/>
      <use xlink:href="#DejaVuSans-31" transform="translate(295.910156 0)"/>
      <use xlink:href="#DejaVuSans-67" transform="translate(359.533203 0)"/>
      <use xlink:href="#DejaVuSans-70" transform="translate(423.009766 0)"/>
      <use xlink:href="#DejaVuSans-75" transform="translate(486.486328 0)"/>
      <use xlink:href="#DejaVuSans-5f" transform="translate(549.865234 0)"/>
      <use xlink:href="#DejaVuSans-63" transform="translate(599.865234 0)"/>
      <use xlink:href="#DejaVuSans-61" transform="translate(654.845703 0)"/>
      <use xlink:href="#DejaVuSans-63" transform="translate(716.125 0)"/>
      <use xlink:href="#DejaVuSans-68" transform="translate(771.105469 0)"/>
      <use xlink:href="#DejaVuSans-65" transform="translate(834.484375 0)"/>
      <use xlink:href="#DejaVuSans-5f" transform="translate(896.007812 0)"/>
      <use xlink:href="#DejaVuSans-65" transform="translate(946.007812 0)"/>
      <use xlink:href="#DejaVuSans-76" transform="translate(1007.53125 0)"/>
      <use xlink:href="#DejaVuSans-61" transform="translate(1066.710938 0)"/>
      <use xlink:href="#DejaVuSans-6c" transform="translate(1127.990234 0)"/>
      <use xlink:href="#DejaVuSans-2e" transform="translate(1155.773438 0)"/>
      <use xlink:href="#DejaVuSans-6c" transform="translate(1187.560547 0)"/>
      <use xlink:href="#DejaVuSans-6f" transform="translate(1215.34375 0)"/>
      <use xlink:href="#DejaVuSans-67" transform="translate(1276.525391 0)"/>
     </g>
    </g>
    <g id="line2d_26">
     <path d="M 250.19375 303.182187 
L 260.19375 303.182187 
L 270.19375 303.182187 
" style="fill: none; stroke: #ff7f0e; stroke-width: 1.5; stroke-linecap: square"/>
     <g>
      <use xlink:href="#m5ca71db961" x="260.19375" y="303.182187" style="fill: #ff7f0e; stroke: #ff7f0e"/>
     </g>
    </g>
    <g id="text_16">
     <!-- arxiv_wse_cache_eval.log -->
     <g transform="translate(278.19375 306.682187) scale(0.1 -0.1)">
      <defs>
       <path id="DejaVuSans-77" d="M 269 3500 
L 844 3500 
L 1563 769 
L 2278 3500 
L 2956 3500 
L 3675 769 
L 4391 3500 
L 4966 3500 
L 4050 0 
L 3372 0 
L 2619 2869 
L 1863 0 
L 1184 0 
L 269 3500 
z
" transform="scale(0.015625)"/>
      </defs>
      <use xlink:href="#DejaVuSans-61"/>
      <use xlink:href="#DejaVuSans-72" transform="translate(61.279297 0)"/>
      <use xlink:href="#DejaVuSans-78" transform="translate(99.767578 0)"/>
      <use xlink:href="#DejaVuSans-69" transform="translate(158.947266 0)"/>
      <use xlink:href="#DejaVuSans-76" transform="translate(186.730469 0)"/>
      <use xlink:href="#DejaVuSans-5f" transform="translate(245.910156 0)"/>
      <use xlink:href="#DejaVuSans-77" transform="translate(295.910156 0)"/>
      <use xlink:href="#DejaVuSans-73" transform="translate(377.697266 0)"/>
      <use xlink:href="#DejaVuSans-65" transform="translate(429.796875 0)"/>
      <use xlink:href="#DejaVuSans-5f" transform="translate(491.320312 0)"/>
      <use xlink:href="#DejaVuSans-63" transform="translate(541.320312 0)"/>
      <use xlink:href="#DejaVuSans-61" transform="translate(596.300781 0)"/>
      <use xlink:href="#DejaVuSans-63" transform="translate(657.580078 0)"/>
      <use xlink:href="#DejaVuSans-68" transform="translate(712.560547 0)"/>
      <use xlink:href="#DejaVuSans-65" transform="translate(775.939453 0)"/>
      <use xlink:href="#DejaVuSans-5f" transform="translate(837.462891 0)"/>
      <use xlink:href="#DejaVuSans-65" transform="translate(887.462891 0)"/>
      <use xlink:href="#DejaVuSans-76" transform="translate(948.986328 0)"/>
      <use xlink:href="#DejaVuSans-61" transform="translate(1008.166016 0)"/>
      <use xlink:href="#DejaVuSans-6c" transform="translate(1069.445312 0)"/>
      <use xlink:href="#DejaVuSans-2e" transform="translate(1097.228516 0)"/>
      <use xlink:href="#DejaVuSans-6c" transform="translate(1129.015625 0)"/>
      <use xlink:href="#DejaVuSans-6f" transform="translate(1156.798828 0)"/>
      <use xlink:href="#DejaVuSans-67" transform="translate(1217.980469 0)"/>
     </g>
    </g>
   </g>
  </g>
 </g>
 <defs>
  <clipPath id="p482c9a0514">
   <rect x="47.72" y="26.88" width="373.48" height="291.16"/>
  </clipPath>
 </defs>
</svg>
